<svg width="1000" height="1000" viewBox="0 0 1000 1000" fill="none" xmlns="http://www.w3.org/2000/svg">
<path fill-rule="evenodd" clip-rule="evenodd" d="M496.184 44.9999H492.836V44.9639H489.488C408.92 44.9639 333.464 66.9599 270.86 104.184L268.772 105.3C203.504 143.568 148.964 198.108 109.58 265.464L110.732 263.376C72.2478 329.112 50.2158 405.612 50.2158 487.26C50.2158 681.912 175.496 847.296 352.94 908.1L352.76 908.064C355.172 908.82 357.764 909.216 360.464 909.216C366.332 909.216 371.732 907.272 376.016 904.068C380.624 899.928 383.504 893.952 383.504 887.292V886.788C383.504 885.252 383.408 874.776 383.216 855.36C383.024 835.944 382.928 818.928 382.928 804.312L369.68 806.616L370.652 806.472C361.652 807.948 352.436 808.704 343.04 808.704C341.132 808.704 339.26 808.704 337.64 808.632H337.388C323.276 808.344 309.452 806.904 297.572 804.6L296.996 804.528C282.776 801.792 269.744 795.744 258.944 787.32L258.764 787.176C247.244 778.428 238.424 766.332 233.564 751.86L227.804 738.612L227.444 737.748C222.584 727.416 216.536 717.768 209.66 709.236L209.516 709.02C203.144 700.056 194.756 692.64 184.568 687.312L180.536 684.432L180.428 684.36C177.728 682.38 175.244 680.112 173.048 677.52L173.084 677.556C170.996 675.216 169.268 672.552 167.864 669.456C166.717 666.78 167.663 664.58 170.702 662.855C175.002 661.144 179.717 660.168 184.676 660.168C185.648 660.168 186.62 660.204 187.448 660.276L198.968 662.004L199.544 662.148C209.84 664.992 219.38 669.744 227.48 675.828L227.804 676.044C238.928 683.712 248.324 693.72 255.452 705.816L255.704 706.356C263.264 720.432 274.064 732.528 287.42 741.852L287.204 741.708C297.968 749.34 311 753.948 325.184 754.236H327.452C338.288 754.236 348.836 753.192 358.052 751.356L358.808 751.212C367.844 749.304 376.52 746.352 383.972 742.716L384.008 742.284C386.384 719.316 396.716 698.724 412.232 683.316L410.576 683.172C390.02 681.12 369.932 677.448 353.156 672.948L351.5 672.552C332.528 667.188 314.492 659.52 298.94 650.448L298.148 650.052C280.688 640.368 265.28 627.48 252.536 611.82L252.86 612.288C239.396 594.612 229.064 574.488 222.26 551.34L222.8 553.392C214.736 526.896 210.416 498.744 210.416 469.62C210.416 467.998 210.416 466.411 210.45 465.028C210.45 465.046 210.451 465.065 210.452 465.084V464.94C210.451 464.969 210.45 464.998 210.45 465.028C210.416 464.145 210.416 463.229 210.416 462.348C210.416 417.432 227.723 376.582 255.969 346.2C256.095 346.541 256.223 346.881 256.352 347.22L255.992 346.176C255.984 346.184 255.977 346.192 255.969 346.2C249.805 329.599 246.452 311.628 246.452 292.896C246.452 269.532 251.672 247.392 260.6 228.528L260.132 228.6C264.38 227.88 268.772 227.52 273.236 227.52C286.52 227.52 299.012 230.76 309.56 236.304L311.936 237.096C328.424 243.36 344.3 250.812 357.728 258.516C367.874 264.651 376.014 269.825 382.147 274.037C381.206 274.296 380.266 274.558 379.328 274.824L382.244 274.104C382.212 274.082 382.179 274.059 382.147 274.037C417.452 264.319 454.618 259.128 492.98 259.128C532.364 259.128 570.488 264.6 603.68 274.104L625.604 260.28L624.236 261.072C640.652 251.107 658.068 242.57 678.402 235.034C678.346 235.061 678.291 235.089 678.236 235.116L678.668 234.936C678.579 234.969 678.49 235.002 678.402 235.034C688.44 230.117 699.722 227.34 711.68 227.34C716.54 227.34 721.256 227.808 725.396 228.6L725 227.664C734.324 247.5 739.544 269.604 739.544 292.968C739.544 312.084 736.052 330.372 730.004 346.212L729.896 346.104C758.228 376.596 775.58 417.456 775.58 462.384C775.58 462.848 775.57 463.313 775.561 463.762C775.554 464.106 775.547 464.441 775.545 464.761C775.544 464.748 775.544 464.736 775.544 464.724V464.976C775.544 464.905 775.544 464.833 775.545 464.761C775.58 466.369 775.58 468.012 775.58 469.62C775.58 498.888 771.26 527.148 763.736 551.736L763.412 552.996C757.04 574.92 746.564 595.08 733.172 612.216L732.956 612.468C720.212 627.66 704.732 640.476 686.444 650.556L687.56 649.944C670.856 659.628 652.856 667.296 632.228 673.056L634.964 672.444C615.452 677.556 595.364 681.228 573.116 683.424C591.872 702.036 603.5 727.812 603.5 756.324C603.5 759.492 603.356 762.588 603.104 765.288C603.104 788.712 603.008 814.56 602.816 842.832C602.624 871.104 602.528 885.816 602.528 886.968V887.436C602.528 894.096 605.408 900.072 610.016 904.212L609.944 904.176C614.3 907.416 619.7 909.36 625.532 909.36C628.196 909.36 630.788 908.964 633.056 908.244L636.188 907.308C653.171 901.495 669.689 894.68 685.672 886.932C678.389 869.097 674.375 849.58 674.375 829.125C674.375 744.626 742.875 676.125 827.375 676.125C848.882 676.125 869.353 680.563 887.922 688.573C918.64 628.243 935.96 559.95 935.96 487.62C935.96 405.9 913.856 329.328 876.416 265.644L875.3 263.556C837.032 198.288 782.492 143.748 715.136 104.364L717.116 105.48C652.424 67.0679 576.896 44.9999 496.184 44.9999ZM213.764 674.064C217.604 675.984 218.948 678.288 217.796 680.976C216.26 684.048 213.764 684.432 210.308 682.128C206.468 680.208 205.124 677.904 206.276 675.216C207.428 673.296 209.924 672.912 213.764 674.064ZM234.536 691.38C237.992 695.604 238.376 698.676 235.688 700.596V700.56C233.36 703.2 230.288 702.636 226.472 698.868C223.016 694.644 222.632 691.572 225.32 689.652C227.624 687.348 230.696 687.924 234.536 691.38ZM252.968 715.572C256.424 720.18 256.424 723.828 252.968 726.516C249.896 728.82 246.632 727.476 243.176 722.484C239.72 717.492 239.72 714.036 243.176 712.116C246.632 709.428 249.896 710.58 252.968 715.572ZM274.856 739.8C279.464 744.024 280.232 747.672 277.16 750.744V750.6C274.088 754.152 270.248 753.624 265.64 749.016C260.648 744.792 259.88 741.144 263.336 738.072C266.408 734.616 270.248 735.192 274.856 739.8ZM302.54 755.928C308.684 757.848 311.18 760.92 310.028 765.144C308.492 769.776 304.844 770.928 299.084 768.6C292.556 767.064 290.06 764.184 291.596 759.96C293.132 755.736 296.78 754.392 302.54 755.928ZM336.56 761.688C343.088 760.92 346.352 763.032 346.352 768.024C346.352 772.248 343.28 774.384 337.136 774.36C330.608 775.128 327.344 773.016 327.344 768.024C327.344 763.8 330.416 761.688 336.56 761.688ZM369.428 757.08C375.572 756.312 379.028 758.04 379.796 762.264C380.54 766.104 377.876 768.792 371.732 770.328C365.588 771.864 362.132 770.328 361.364 765.72C360.596 761.112 363.284 758.232 369.428 757.08Z" fill="white"/>
<circle cx="827.5" cy="821.5" r="112.5" fill="#00FF00"/>
</svg>
